<svg xmlns="http://www.w3.org/2000/svg" width="1403.156" height="150.961" viewBox="0 0 1403.156 150.961">
  <g id="Path_56" data-name="Path 56" fill="none" stroke-dasharray="20 20" opacity="0.25">
    <path d="M1401.656,0V85.376H1.5v65.584" stroke="none"/>
    <path d="M 0.0001220703125 139.8443145751953 L 3.0001220703125 139.8443145751953 L 3.0001220703125 119.8443145751953 L 0.0001220703125 119.8443145751953 L 0.0001220703125 139.8443145751953 Z M 0.0001220703125 99.84431457519531 L 3.0001220703125 99.84431457519531 L 3.0001220703125 86.87631988525391 L 7.0321044921875 86.87631988525391 L 7.0321044921875 83.87631988525391 L 1.5001220703125 83.87631988525391 L 0.0001220703125 83.87631988525391 L 0.0001220703125 85.37631988525391 L 0.0001220703125 99.84431457519531 Z M 27.0321044921875 86.87631988525391 L 47.0321044921875 86.87631988525391 L 47.0321044921875 83.87631988525391 L 27.0321044921875 83.87631988525391 L 27.0321044921875 86.87631988525391 Z M 67.0321044921875 86.87631988525391 L 87.0321044921875 86.87631988525391 L 87.0321044921875 83.87631988525391 L 67.0321044921875 83.87631988525391 L 67.0321044921875 86.87631988525391 Z M 107.0321044921875 86.87631988525391 L 127.0321044921875 86.87631988525391 L 127.0321044921875 83.87631988525391 L 107.0321044921875 83.87631988525391 L 107.0321044921875 86.87631988525391 Z M 147.0321044921875 86.87631988525391 L 167.0321044921875 86.87631988525391 L 167.0321044921875 83.87631988525391 L 147.0321044921875 83.87631988525391 L 147.0321044921875 86.87631988525391 Z M 187.0321044921875 86.87631988525391 L 207.0321044921875 86.87631988525391 L 207.0321044921875 83.87631988525391 L 187.0321044921875 83.87631988525391 L 187.0321044921875 86.87631988525391 Z M 227.0321044921875 86.87631988525391 L 247.0321044921875 86.87631988525391 L 247.0321044921875 83.87631988525391 L 227.0321044921875 83.87631988525391 L 227.0321044921875 86.87631988525391 Z M 267.0321044921875 86.87631988525391 L 287.0321044921875 86.87631988525391 L 287.0321044921875 83.87631988525391 L 267.0321044921875 83.87631988525391 L 267.0321044921875 86.87631988525391 Z M 307.0321044921875 86.87631988525391 L 327.0321044921875 86.87631988525391 L 327.0321044921875 83.87631988525391 L 307.0321044921875 83.87631988525391 L 307.0321044921875 86.87631988525391 Z M 347.0321044921875 86.87631988525391 L 367.0321044921875 86.87631988525391 L 367.0321044921875 83.87631988525391 L 347.0321044921875 83.87631988525391 L 347.0321044921875 86.87631988525391 Z M 387.0320434570312 86.87631988525391 L 407.0320434570312 86.87631988525391 L 407.0320434570312 83.87631988525391 L 387.0320434570312 83.87631988525391 L 387.0320434570312 86.87631988525391 Z M 427.0320434570312 86.87631988525391 L 447.0320434570312 86.87631988525391 L 447.0320434570312 83.87631988525391 L 427.0320434570312 83.87631988525391 L 427.0320434570312 86.87631988525391 Z M 467.0320434570312 86.87631988525391 L 487.0320434570312 86.87631988525391 L 487.0320434570312 83.87631988525391 L 467.0320434570312 83.87631988525391 L 467.0320434570312 86.87631988525391 Z M 507.0320434570312 86.87631988525391 L 527.0320434570312 86.87631988525391 L 527.0320434570312 83.87631988525391 L 507.0320434570312 83.87631988525391 L 507.0320434570312 86.87631988525391 Z M 547.0320434570312 86.87631988525391 L 567.0320434570312 86.87631988525391 L 567.0320434570312 83.87631988525391 L 547.0320434570312 83.87631988525391 L 547.0320434570312 86.87631988525391 Z M 587.0320434570312 86.87631988525391 L 607.0320434570312 86.87631988525391 L 607.0320434570312 83.87631988525391 L 587.0320434570312 83.87631988525391 L 587.0320434570312 86.87631988525391 Z M 627.0320434570312 86.87631988525391 L 647.0320434570312 86.87631988525391 L 647.0320434570312 83.87631988525391 L 627.0320434570312 83.87631988525391 L 627.0320434570312 86.87631988525391 Z M 667.0320434570312 86.87631988525391 L 687.0320434570312 86.87631988525391 L 687.0320434570312 83.87631988525391 L 667.0320434570312 83.87631988525391 L 667.0320434570312 86.87631988525391 Z M 707.0320434570312 86.87631988525391 L 727.0320434570312 86.87631988525391 L 727.0320434570312 83.87631988525391 L 707.0320434570312 83.87631988525391 L 707.0320434570312 86.87631988525391 Z M 747.0320434570312 86.87631988525391 L 767.0320434570312 86.87631988525391 L 767.0320434570312 83.87631988525391 L 747.0320434570312 83.87631988525391 L 747.0320434570312 86.87631988525391 Z M 787.0320434570312 86.87631988525391 L 807.0320434570312 86.87631988525391 L 807.0320434570312 83.87631988525391 L 787.0320434570312 83.87631988525391 L 787.0320434570312 86.87631988525391 Z M 827.0320434570312 86.87631988525391 L 847.0320434570312 86.87631988525391 L 847.0320434570312 83.87631988525391 L 827.0320434570312 83.87631988525391 L 827.0320434570312 86.87631988525391 Z M 867.0320434570312 86.87631988525391 L 887.0320434570312 86.87631988525391 L 887.0320434570312 83.87631988525391 L 867.0320434570312 83.87631988525391 L 867.0320434570312 86.87631988525391 Z M 907.0321044921875 86.87631988525391 L 927.0321044921875 86.87631988525391 L 927.0321044921875 83.87631988525391 L 907.0321044921875 83.87631988525391 L 907.0321044921875 86.87631988525391 Z M 947.0321044921875 86.87631988525391 L 967.0321044921875 86.87631988525391 L 967.0321044921875 83.87631988525391 L 947.0321044921875 83.87631988525391 L 947.0321044921875 86.87631988525391 Z M 987.0321044921875 86.87631988525391 L 1007.032104492188 86.87631988525391 L 1007.032104492188 83.87631988525391 L 987.0321044921875 83.87631988525391 L 987.0321044921875 86.87631988525391 Z M 1027.032104492188 86.87631988525391 L 1047.032104492188 86.87631988525391 L 1047.032104492188 83.87631988525391 L 1027.032104492188 83.87631988525391 L 1027.032104492188 86.87631988525391 Z M 1067.032104492188 86.87631988525391 L 1087.032104492188 86.87631988525391 L 1087.032104492188 83.87631988525391 L 1067.032104492188 83.87631988525391 L 1067.032104492188 86.87631988525391 Z M 1107.032104492188 86.87631988525391 L 1127.032104492188 86.87631988525391 L 1127.032104492188 83.87631988525391 L 1107.032104492188 83.87631988525391 L 1107.032104492188 86.87631988525391 Z M 1147.032104492188 86.87631988525391 L 1167.032104492188 86.87631988525391 L 1167.032104492188 83.87631988525391 L 1147.032104492188 83.87631988525391 L 1147.032104492188 86.87631988525391 Z M 1187.032104492188 86.87631988525391 L 1207.032104492188 86.87631988525391 L 1207.032104492188 83.87631988525391 L 1187.032104492188 83.87631988525391 L 1187.032104492188 86.87631988525391 Z M 1227.032104492188 86.87631988525391 L 1247.032104492188 86.87631988525391 L 1247.032104492188 83.87631988525391 L 1227.032104492188 83.87631988525391 L 1227.032104492188 86.87631988525391 Z M 1267.032104492188 86.87631988525391 L 1287.032104492188 86.87631988525391 L 1287.032104492188 83.87631988525391 L 1267.032104492188 83.87631988525391 L 1267.032104492188 86.87631988525391 Z M 1307.032104492188 86.87631988525391 L 1327.032104492188 86.87631988525391 L 1327.032104492188 83.87631988525391 L 1307.032104492188 83.87631988525391 L 1307.032104492188 86.87631988525391 Z M 1347.032104492188 86.87631988525391 L 1367.032104492188 86.87631988525391 L 1367.032104492188 83.87631988525391 L 1347.032104492188 83.87631988525391 L 1347.032104492188 86.87631988525391 Z M 1387.032104492188 86.87631988525391 L 1401.655639648438 86.87631988525391 L 1403.155639648438 86.87631988525391 L 1403.155639648438 85.37631988525391 L 1403.155639648438 79.99995422363281 L 1400.155639648438 79.99995422363281 L 1400.155639648438 83.87631988525391 L 1387.032104492188 83.87631988525391 L 1387.032104492188 86.87631988525391 Z M 1400.155639648438 59.99995422363281 L 1403.155639648438 59.99995422363281 L 1403.155639648438 39.99995422363281 L 1400.155639648438 39.99995422363281 L 1400.155639648438 59.99995422363281 Z M 1400.155639648438 19.99995231628418 L 1403.155639648438 19.99995231628418 L 1403.155639648438 -4.747425555251539e-05 L 1400.155639648438 -4.747425555251539e-05 L 1400.155639648438 19.99995231628418 Z" stroke="none" fill="rgba(101,101,101,0.99)"/>
  </g>
</svg>
